<svg   width="126" height="111" viewBox="0 0 87 113" fill="none" xmlns="http://www.w3.org/2000/svg">
<path d="M37.5 57.5C37.5 47.2829 45.7826 39 56 39C66.2171 39 74.5 47.2829 74.5 57.5C74.5 67.7174 66.2171 76 56 76C45.7826 76 37.5 67.7174 37.5 57.5Z" fill="#1ABCFE"/>
<path d="M0.5 94.5C0.5 84.2829 8.78272 76 19 76H37.5V94.5C37.5 104.717 29.2174 113 19 113C8.78272 113 0.5 104.717 0.5 94.5Z" fill="#0ACF83"/>
<path d="M37.5 2V39H56C66.2174 39 74.5 30.7173 74.5 20.5C74.5 10.2828 66.2174 2 56 2H37.5Z" fill="#FF7262"/>
<path d="M0.5 20.5001C0.5 30.7173 8.78272 39 19 39H37.5V2H19C8.78272 2 0.5 10.2827 0.5 20.5001Z" fill="#F24E1E"/>
<path d="M0.5 57.5C0.5 67.7174 8.78272 76 19 76H37.5V39H19C8.78272 39 0.5 47.2829 0.5 57.5Z" fill="#A259FF"/>
</svg>
