<svg width="126" height="111" viewBox="0 0 126 125" fill="none" xmlns="http://www.w3.org/2000/svg">
<path d="M122.853 56.8892L68.1802 2.35571C65.0344 -0.785238 59.9282 -0.785238 56.7785 2.35571L45.4263 13.6815L59.8262 28.0464C63.1738 26.9189 67.0109 27.6749 69.6781 30.3362C72.3591 33.014 73.1116 36.8744 71.9529 40.2251L85.8319 54.0704C89.1896 52.9161 93.0637 53.6618 95.7449 56.3412C99.4933 60.0795 99.4933 66.137 95.7449 69.8762C91.9959 73.6167 85.9237 73.6167 82.1726 69.8762C79.354 67.0623 78.6569 62.9311 80.0845 59.4668L67.1408 46.5546L67.1397 80.533C68.0536 80.9843 68.916 81.5866 69.6775 82.343C73.4249 86.0808 73.4249 92.1372 69.6775 95.8813C65.9291 99.619 59.8541 99.619 56.1096 95.8813C52.3617 92.1375 52.3617 86.0812 56.1096 82.343C57.0359 81.4207 58.1076 80.7225 59.2512 80.2546V45.9604C58.1071 45.4945 57.0366 44.8015 56.109 43.8718C53.2701 41.042 52.5864 36.8856 54.0423 33.4079L39.8468 19.2447L2.36219 56.6372C-0.787396 59.7806 -0.787396 64.8745 2.36219 68.0156L57.0317 122.549C60.1792 125.69 65.2837 125.69 68.4356 122.549L122.852 68.2733C126.001 65.1308 126.001 60.0354 122.852 56.8938" fill="#F05133"/>
</svg>
