<svg width="116" height="111" viewBox="0 0 116 114" fill="none" xmlns="http://www.w3.org/2000/svg">
<path d="M58.0005 0C25.9719 0 0 25.9671 0 58.0005C0 83.6266 16.6189 105.368 39.6643 113.037C42.5629 113.574 43.6271 111.779 43.6271 110.247C43.6271 108.864 43.5734 104.295 43.5484 99.4483C27.4126 102.957 24.0077 92.605 24.0077 92.605C21.3694 85.901 17.5678 84.1184 17.5678 84.1184C12.3055 80.5185 17.9645 80.5925 17.9645 80.5925C23.7888 81.0017 26.8555 86.5695 26.8555 86.5695C32.0286 95.4365 40.424 92.873 43.7338 91.391C44.2543 87.6423 45.7575 85.0836 47.4162 83.6352C34.5335 82.1686 20.9909 77.1953 20.9909 54.9712C20.9909 48.6388 23.2567 43.4648 26.9669 39.403C26.3647 37.9422 24.3794 32.043 27.5288 24.0539C27.5288 24.0539 32.3993 22.495 43.4831 29.9991C48.1096 28.714 53.0714 28.0695 58.0005 28.0475C62.9296 28.0695 67.8952 28.714 72.5304 29.9991C83.6007 22.495 88.4645 24.0539 88.4645 24.0539C91.6215 32.043 89.6353 37.9422 89.0331 39.403C92.752 43.4648 95.0023 48.6388 95.0023 54.9712C95.0023 77.2482 81.4339 82.1533 68.5185 83.5891C70.5989 85.3891 72.4526 88.9188 72.4526 94.33C72.4526 102.091 72.3853 108.336 72.3853 110.247C72.3853 111.79 73.4294 113.599 76.3693 113.029C99.4022 105.351 116 83.618 116 58.0005C116 25.9671 90.0319 0 58.0005 0ZM21.7231 82.6229C21.5953 82.911 21.142 82.9975 20.729 82.7996C20.3083 82.6104 20.072 82.2176 20.2084 81.9285C20.3333 81.6317 20.7876 81.5491 21.2073 81.7479C21.6289 81.9371 21.8691 82.3338 21.7231 82.6229ZM24.576 85.1686C24.2994 85.425 23.7587 85.3059 23.3918 84.9006C23.0124 84.4963 22.9413 83.9555 23.2218 83.6952C23.507 83.4388 24.0315 83.5588 24.4118 83.9632C24.7912 84.3724 24.8651 84.9092 24.576 85.1686ZM26.5333 88.4257C26.1779 88.6725 25.5968 88.441 25.2376 87.9253C24.8823 87.4095 24.8823 86.791 25.2453 86.5432C25.6055 86.2954 26.1779 86.5182 26.5419 87.0301C26.8964 87.5545 26.8964 88.1731 26.5333 88.4257ZM29.8434 92.1979C29.5255 92.5484 28.8484 92.4543 28.3528 91.976C27.8457 91.5083 27.7045 90.8446 28.0233 90.494C28.3451 90.1425 29.0261 90.2414 29.5255 90.7159C30.0288 91.1827 30.1825 91.8511 29.8434 92.1979ZM34.1215 93.4713C33.9812 93.9256 33.3291 94.1321 32.6721 93.9391C32.0161 93.7402 31.5868 93.2082 31.7193 92.7491C31.8557 92.2919 32.5108 92.0767 33.1725 92.2832C33.8275 92.4811 34.2578 93.0093 34.1215 93.4713ZM38.99 94.0115C39.0063 94.4898 38.4493 94.8865 37.7597 94.8951C37.0662 94.9105 36.5053 94.5234 36.4976 94.0528C36.4976 93.5697 37.0422 93.1768 37.7357 93.1653C38.4253 93.1519 38.99 93.5361 38.99 94.0115ZM43.7729 93.8281C43.8554 94.2949 43.3762 94.7742 42.6914 94.9019C42.0181 95.0249 41.3947 94.7367 41.3093 94.2738C41.2257 93.7955 41.7136 93.3162 42.3859 93.1923C43.0717 93.0732 43.6854 93.3537 43.7729 93.8281Z" fill="#689F63"/>
</svg>
