<svg width="126" height="111" viewBox="0 0 300 226" fill="none" xmlns="http://www.w3.org/2000/svg">
<path d="M20.4545 225.058H68.1818V109.149L0 58.0127V204.604C0 215.922 9.17045 225.058 20.4545 225.058Z" fill="#4285F4"/>
<path d="M231.818 225.058H279.545C290.864 225.058 300 215.888 300 204.604V58.0127L231.818 109.149" fill="#34A853"/>
<path d="M231.818 20.5126V109.149L300 58.0126V30.7398C300 5.44439 271.125 -8.97606 250.909 6.19439" fill="#FBBC04"/>
<path d="M68.1818 109.149V20.5127L150 81.8763L231.818 20.5127V109.149L150 170.513" fill="#EA4335"/>
<path d="M0 30.7398V58.0126L68.1818 109.149V20.5126L49.0909 6.19439C28.8409 -8.97606 0 5.44439 0 30.7398Z" fill="#C5221F"/>
</svg>
