<svg  width="126" height="111" viewBox="0 0 112 111" fill="none" xmlns="http://www.w3.org/2000/svg">
<path d="M0.5 0V111H111.5V0H0.5ZM59.9643 86.2232C59.9643 97.0284 53.5818 102.296 44.3425 102.296C35.9977 102.296 31.1538 97.9748 28.696 92.7593L37.1895 87.6181C38.8272 90.5245 40.071 92.9823 43.6463 92.9823C46.6195 92.9823 49.0625 91.6419 49.0625 86.4264V51.5357H59.9643V86.2232ZM84.58 102.048C74.8948 102.048 68.6362 97.6775 65.5812 91.6419L74.0871 86.7188C76.317 90.3708 79.2282 92.8039 84.3694 92.8039C88.6905 92.8039 91.2004 90.8912 91.2004 87.9105C91.2004 84.3352 88.6162 83.0691 83.8466 80.973L81.2401 79.8531C73.7129 76.6519 68.7229 72.6282 68.7229 64.1322C68.7229 56.3102 74.6817 50.5967 83.9953 50.5967C90.628 50.5967 95.3926 52.6581 98.8242 58.6937L90.6875 63.9241C88.8986 60.7205 86.971 59.4643 83.9829 59.4643C80.9279 59.4643 78.9904 61.4018 78.9904 63.9241C78.9904 67.0534 80.9279 68.3195 85.3977 70.257L88.0042 71.3745C96.8718 75.1752 101.864 79.0553 101.864 87.7668C101.867 97.1572 94.4907 102.048 84.58 102.048Z" fill="#FFF500"/>
</svg>
