<svg width="116" height="114" viewBox="0 0 254 252" fill="none" xmlns="http://www.w3.org/2000/svg">
<path d="M216.14 214.009H178.554V155.727C178.554 141.829 178.303 123.938 159.005 123.938C139.429 123.938 136.434 139.081 136.434 154.715V214.005H98.8474V94.1541H134.93V110.533H135.435C139.046 104.42 144.264 99.3905 150.534 95.9812C156.803 92.572 163.889 90.9102 171.036 91.1729C209.132 91.1729 216.155 115.984 216.155 148.261L216.14 214.009ZM56.4378 77.7713C52.1239 77.7721 47.9065 76.5062 44.3192 74.1337C40.7318 71.7613 37.9357 68.3888 36.2842 64.4428C34.6326 60.4967 34.1997 56.1544 35.0406 51.9649C35.8814 47.7753 37.9582 43.9268 41.008 40.9059C44.0579 37.885 47.944 35.8274 52.1749 34.9933C56.4058 34.1592 60.7914 34.5861 64.7773 36.22C68.7632 37.8539 72.1701 40.6214 74.5675 44.1726C76.9648 47.7238 78.2449 51.8991 78.2457 56.1706C78.2462 59.0067 77.6824 61.8152 76.5868 64.4356C75.4911 67.0561 73.885 69.4372 71.86 71.443C69.835 73.4488 67.4306 75.04 64.7845 76.1258C62.1383 77.2116 59.3022 77.7708 56.4378 77.7713ZM75.2309 214.009H37.6056V94.1541H75.2309V214.009ZM234.878 0.0171122H18.7187C13.8125 -0.037709 9.08478 1.83835 5.57484 5.23303C2.0649 8.62771 0.0598776 13.2633 0 18.1211V233.039C0.0578282 237.9 2.06168 242.538 5.5715 245.936C9.08132 249.335 13.8101 251.214 18.7187 251.163H234.878C239.796 251.224 244.538 249.349 248.062 245.951C251.586 242.553 253.603 237.909 253.671 233.039V18.1056C253.601 13.2381 251.582 8.5973 248.058 5.2027C244.535 1.8081 239.794 -0.0625967 234.878 0.00159931" fill="#0A66C2"/>
</svg>
