<svg width="116" height="114" viewBox="0 0 116 114" fill="none" xmlns="http://www.w3.org/2000/svg">
<path d="M98.8375 97.1357H81.6499V70.6824C81.6499 64.3744 81.5354 56.254 72.7106 56.254C63.7588 56.254 62.3891 63.1268 62.3891 70.2232V97.1339H45.2015V42.7352H61.7015V50.1694H61.9326C63.5838 47.3946 65.97 45.112 68.8368 43.5646C71.7037 42.0172 74.9439 41.2629 78.2125 41.3821C95.6328 41.3821 98.8447 52.6433 98.8447 67.2935L98.8375 97.1357ZM25.8082 35.2993C23.8355 35.2997 21.9069 34.7251 20.2665 33.6483C18.6261 32.5715 17.3475 31.0407 16.5922 29.2497C15.837 27.4586 15.639 25.4877 16.0235 23.5862C16.408 21.6846 17.3577 19.9378 18.7524 18.5666C20.147 17.1955 21.9241 16.2615 23.8588 15.883C25.7936 15.5044 27.799 15.6982 29.6217 16.4398C31.4444 17.1814 33.0023 18.4375 34.0986 20.0493C35.1949 21.6612 35.7802 23.5563 35.7806 25.495C35.7808 26.7823 35.523 28.0571 35.022 29.2464C34.521 30.4358 33.7865 31.5166 32.8605 32.427C31.9345 33.3374 30.835 34.0596 29.625 34.5525C28.4149 35.0453 27.118 35.2991 25.8082 35.2993ZM34.402 97.1357H17.1965V42.7352H34.402V97.1357ZM107.406 0.007767H8.55978C6.31625 -0.0171156 4.15434 0.834401 2.54929 2.3752C0.94425 3.916 0.0273811 6.02002 0 8.22493V105.773C0.026444 107.979 0.942775 110.085 2.54776 111.627C4.15275 113.17 6.31514 114.023 8.55978 113.999H107.406C109.655 114.027 111.824 113.176 113.435 111.634C115.046 110.092 115.969 107.984 116 105.773V8.21789C115.968 6.00861 115.045 3.9022 113.433 2.36143C111.822 0.820672 109.654 -0.0284118 107.406 0.000725903" fill="#ffffff50"/>
</svg>
