<svg  width="126" height="111" viewBox="0 0 100 112" fill="none" xmlns="http://www.w3.org/2000/svg">
<path d="M50.242 112C48.7407 112 47.2497 111.607 45.9335 110.849L32.2194 102.738C30.171 101.593 31.1705 101.189 31.8461 100.955C34.5772 100 35.1315 99.7843 38.0466 98.1304C38.3531 97.9558 38.7541 98.0174 39.0677 98.2023L49.6035 104.448C49.9839 104.654 50.5238 104.654 50.8765 104.448L91.9563 80.7587C92.3367 80.543 92.5835 80.1013 92.5835 79.6493V32.2907C92.5835 31.8181 92.3367 31.3969 91.948 31.1606L50.8847 7.4916C50.5042 7.26559 50.0004 7.26559 49.6199 7.4916L8.5648 31.1606C8.16686 31.3866 7.91391 31.8284 7.91391 32.2804V79.639C7.91391 80.091 8.16069 80.5225 8.55144 80.7382L19.8008 87.2307C25.9088 90.2818 29.6415 86.6863 29.6415 83.0702V36.3279C29.6415 35.6602 30.1659 35.1466 30.8343 35.1466H36.0374C36.6852 35.1466 37.2199 35.6602 37.2199 36.3279V83.0907C37.2199 91.2269 32.7777 95.9012 25.0553 95.9012C22.68 95.9012 20.8085 95.9012 15.5849 93.3329L4.8085 87.128C2.14525 85.5871 0.5 82.7106 0.5 79.639V32.2804C0.5 29.1985 2.14525 26.322 4.8085 24.8016L45.9294 1.10178C48.531 -0.36726 51.986 -0.36726 54.567 1.10178L95.6365 24.8119C98.2895 26.3426 99.945 29.2088 99.945 32.2907V79.6493C99.945 82.7209 98.2895 85.5871 95.6365 87.128L54.567 110.828C53.2508 111.588 51.7598 111.978 50.2379 111.978" fill="#689F63"/>
<path d="M62.9312 79.3667C44.9569 79.3667 41.1882 71.1236 41.1882 64.2099C41.1882 63.5524 41.7188 63.0285 42.3779 63.0285H47.6838C48.27 63.0285 48.7635 63.4548 48.8561 64.0332C49.6581 69.4347 52.0438 72.1591 62.9127 72.1591C71.5708 72.1591 75.252 70.2052 75.252 65.6183C75.252 62.9781 74.2032 61.016 60.7533 59.701C49.5039 58.5915 42.5527 56.1158 42.5527 47.1269C42.5527 38.8468 49.545 33.9158 61.2571 33.9158C74.4089 33.9158 80.9282 38.477 81.7508 48.2774C81.7816 48.6165 81.6582 48.9452 81.432 49.1917C81.2058 49.428 80.887 49.5718 80.558 49.5718H75.2212C74.6659 49.5718 74.1826 49.1815 74.0695 48.6473C72.7842 42.9663 69.6788 41.148 61.2366 41.148C51.7867 41.148 50.6864 44.4353 50.6864 46.9009C50.6864 49.8903 51.9821 50.7635 64.7327 52.4483C77.36 54.1228 83.3549 56.4856 83.3549 65.3512C83.3549 74.2887 75.8896 79.415 62.8716 79.415" fill="#689F63"/>
</svg>
