<svg width="1024" height="899" viewBox="0 0 1024 899" fill="none" xmlns="http://www.w3.org/2000/svg">
<mask id="path-1-outside-1_16_109" maskUnits="userSpaceOnUse" x="0.835938" y="0.71875" width="1023" height="899" fill="black">
<rect fill="white" x="0.835938" y="0.71875" width="1023" height="899"/>
<path d="M3.83594 292V7.625H152.664C183.133 7.625 206.635 17.3255 223.172 36.7266C239.708 56.1276 247.977 81.5833 247.977 113.094C247.977 144.474 239.969 169.734 223.953 188.875C208.068 208.016 183.589 217.586 150.516 217.586H105.008V292H3.83594ZM105.008 152.156H124.539C132.872 152.156 138.667 148.641 141.922 141.609C145.307 134.448 147 125.724 147 115.437C147 104.891 145.307 96.1016 141.922 89.0703C138.667 81.9088 132.872 78.3281 124.539 78.3281H105.008V152.156ZM260.281 157.43V142.195C260.281 93.888 272.391 58.7318 296.609 36.7266C320.828 14.7214 351.622 3.71875 388.992 3.71875C426.492 3.71875 457.286 14.7214 481.375 36.7266C505.594 58.7318 517.703 93.888 517.703 142.195V157.43C517.703 205.737 505.594 240.893 481.375 262.898C457.286 284.904 426.492 295.906 388.992 295.906C351.622 295.906 320.828 284.904 296.609 262.898C272.391 240.893 260.281 205.737 260.281 157.43ZM366.141 191.609C366.141 205.672 368.029 215.633 371.805 221.492C375.711 227.352 381.44 230.281 388.992 230.281C396.544 230.281 402.208 227.352 405.984 221.492C409.891 215.633 411.844 205.672 411.844 191.609V108.602C411.844 94.9297 409.891 85.2292 405.984 79.5C402.208 73.7708 396.544 70.9062 388.992 70.9062C381.44 70.9062 375.711 73.7708 371.805 79.5C368.029 85.2292 366.141 94.9297 366.141 108.602V191.609ZM535.086 292V7.625H680.398C708.523 7.625 731.44 16.4141 749.148 33.9922C766.987 51.5703 775.906 74.6172 775.906 103.133C775.906 132.69 766.206 156.974 746.805 175.984C727.404 194.865 704.812 204.305 679.031 204.305H636.258V292H535.086ZM636.258 142.195H652.664C660.346 142.195 665.75 139.201 668.875 133.211C672 127.091 673.562 119.344 673.562 109.969C673.562 100.464 672 92.5208 668.875 86.1406C665.75 79.7604 660.346 76.5703 652.664 76.5703H636.258V142.195ZM678.641 292L638.406 174.227L724.344 144.93L788.016 292H678.641ZM778.445 86.7266V7.625H1020.63V86.7266H951.297V292H848.367V86.7266H778.445ZM340.945 592V307.625H535.281V386.531H442.117V419.93H522.586V490.828H442.117V592H340.945ZM543.875 457.43V442.195C543.875 393.888 555.984 358.732 580.203 336.727C604.422 314.721 635.216 303.719 672.586 303.719C710.086 303.719 740.88 314.721 764.969 336.727C789.187 358.732 801.297 393.888 801.297 442.195V457.43C801.297 505.737 789.187 540.893 764.969 562.898C740.88 584.904 710.086 595.906 672.586 595.906C635.216 595.906 604.422 584.904 580.203 562.898C555.984 540.893 543.875 505.737 543.875 457.43ZM649.734 491.609C649.734 505.672 651.622 515.633 655.398 521.492C659.305 527.352 665.034 530.281 672.586 530.281C680.138 530.281 685.802 527.352 689.578 521.492C693.484 515.633 695.437 505.672 695.437 491.609V408.602C695.437 394.93 693.484 385.229 689.578 379.5C685.802 373.771 680.138 370.906 672.586 370.906C665.034 370.906 659.305 373.771 655.398 379.5C651.622 385.229 649.734 394.93 649.734 408.602V491.609ZM818.68 592V307.625H919.852V512.898H1018.09V592H818.68ZM636.453 892V607.625H739.383V892H636.453ZM757.937 757.43V742.195C757.937 693.888 770.047 658.732 794.266 636.727C818.484 614.721 849.279 603.719 886.648 603.719C924.148 603.719 954.943 614.721 979.031 636.727C1003.25 658.732 1015.36 693.888 1015.36 742.195V757.43C1015.36 805.737 1003.25 840.893 979.031 862.898C954.943 884.904 924.148 895.906 886.648 895.906C849.279 895.906 818.484 884.904 794.266 862.898C770.047 840.893 757.937 805.737 757.937 757.43ZM863.797 791.609C863.797 805.672 865.685 815.633 869.461 821.492C873.367 827.352 879.096 830.281 886.648 830.281C894.2 830.281 899.865 827.352 903.641 821.492C907.547 815.633 909.5 805.672 909.5 791.609V708.602C909.5 694.93 907.547 685.229 903.641 679.5C899.865 673.771 894.2 670.906 886.648 670.906C879.096 670.906 873.367 673.771 869.461 679.5C865.685 685.229 863.797 694.93 863.797 708.602V791.609Z"/>
</mask>
<path d="M3.83594 292V7.625H152.664C183.133 7.625 206.635 17.3255 223.172 36.7266C239.708 56.1276 247.977 81.5833 247.977 113.094C247.977 144.474 239.969 169.734 223.953 188.875C208.068 208.016 183.589 217.586 150.516 217.586H105.008V292H3.83594ZM105.008 152.156H124.539C132.872 152.156 138.667 148.641 141.922 141.609C145.307 134.448 147 125.724 147 115.437C147 104.891 145.307 96.1016 141.922 89.0703C138.667 81.9088 132.872 78.3281 124.539 78.3281H105.008V152.156ZM260.281 157.43V142.195C260.281 93.888 272.391 58.7318 296.609 36.7266C320.828 14.7214 351.622 3.71875 388.992 3.71875C426.492 3.71875 457.286 14.7214 481.375 36.7266C505.594 58.7318 517.703 93.888 517.703 142.195V157.43C517.703 205.737 505.594 240.893 481.375 262.898C457.286 284.904 426.492 295.906 388.992 295.906C351.622 295.906 320.828 284.904 296.609 262.898C272.391 240.893 260.281 205.737 260.281 157.43ZM366.141 191.609C366.141 205.672 368.029 215.633 371.805 221.492C375.711 227.352 381.44 230.281 388.992 230.281C396.544 230.281 402.208 227.352 405.984 221.492C409.891 215.633 411.844 205.672 411.844 191.609V108.602C411.844 94.9297 409.891 85.2292 405.984 79.5C402.208 73.7708 396.544 70.9062 388.992 70.9062C381.44 70.9062 375.711 73.7708 371.805 79.5C368.029 85.2292 366.141 94.9297 366.141 108.602V191.609ZM535.086 292V7.625H680.398C708.523 7.625 731.44 16.4141 749.148 33.9922C766.987 51.5703 775.906 74.6172 775.906 103.133C775.906 132.69 766.206 156.974 746.805 175.984C727.404 194.865 704.812 204.305 679.031 204.305H636.258V292H535.086ZM636.258 142.195H652.664C660.346 142.195 665.75 139.201 668.875 133.211C672 127.091 673.562 119.344 673.562 109.969C673.562 100.464 672 92.5208 668.875 86.1406C665.75 79.7604 660.346 76.5703 652.664 76.5703H636.258V142.195ZM678.641 292L638.406 174.227L724.344 144.93L788.016 292H678.641ZM778.445 86.7266V7.625H1020.63V86.7266H951.297V292H848.367V86.7266H778.445ZM340.945 592V307.625H535.281V386.531H442.117V419.93H522.586V490.828H442.117V592H340.945ZM543.875 457.43V442.195C543.875 393.888 555.984 358.732 580.203 336.727C604.422 314.721 635.216 303.719 672.586 303.719C710.086 303.719 740.88 314.721 764.969 336.727C789.187 358.732 801.297 393.888 801.297 442.195V457.43C801.297 505.737 789.187 540.893 764.969 562.898C740.88 584.904 710.086 595.906 672.586 595.906C635.216 595.906 604.422 584.904 580.203 562.898C555.984 540.893 543.875 505.737 543.875 457.43ZM649.734 491.609C649.734 505.672 651.622 515.633 655.398 521.492C659.305 527.352 665.034 530.281 672.586 530.281C680.138 530.281 685.802 527.352 689.578 521.492C693.484 515.633 695.437 505.672 695.437 491.609V408.602C695.437 394.93 693.484 385.229 689.578 379.5C685.802 373.771 680.138 370.906 672.586 370.906C665.034 370.906 659.305 373.771 655.398 379.5C651.622 385.229 649.734 394.93 649.734 408.602V491.609ZM818.68 592V307.625H919.852V512.898H1018.09V592H818.68ZM636.453 892V607.625H739.383V892H636.453ZM757.937 757.43V742.195C757.937 693.888 770.047 658.732 794.266 636.727C818.484 614.721 849.279 603.719 886.648 603.719C924.148 603.719 954.943 614.721 979.031 636.727C1003.25 658.732 1015.36 693.888 1015.36 742.195V757.43C1015.36 805.737 1003.25 840.893 979.031 862.898C954.943 884.904 924.148 895.906 886.648 895.906C849.279 895.906 818.484 884.904 794.266 862.898C770.047 840.893 757.937 805.737 757.937 757.43ZM863.797 791.609C863.797 805.672 865.685 815.633 869.461 821.492C873.367 827.352 879.096 830.281 886.648 830.281C894.2 830.281 899.865 827.352 903.641 821.492C907.547 815.633 909.5 805.672 909.5 791.609V708.602C909.5 694.93 907.547 685.229 903.641 679.5C899.865 673.771 894.2 670.906 886.648 670.906C879.096 670.906 873.367 673.771 869.461 679.5C865.685 685.229 863.797 694.93 863.797 708.602V791.609Z" stroke="white" stroke-width="6" mask="url(#path-1-outside-1_16_109)"/>
</svg>
