<svg width="126" height="111" viewBox="0 0 126 111" fill="none" xmlns="http://www.w3.org/2000/svg">
<path d="M103.37 35.9766C102.037 35.5237 100.695 35.1018 99.343 34.711C99.5671 33.8033 99.7739 32.8904 99.9633 31.9724C103.013 17.2156 101.019 5.32725 94.2133 1.41373C87.6969 -2.34159 77.0101 1.57193 66.2294 10.9291C65.1694 11.8524 64.1311 12.8033 63.1145 13.7819C62.4368 13.1318 61.7418 12.4955 61.0293 11.8731C49.7299 1.86758 38.4044 -2.34677 31.6066 1.57971C25.0902 5.34281 23.1535 16.518 25.8982 30.5045C26.1728 31.8876 26.4812 33.2648 26.8235 34.6358C25.2658 35.0752 23.7212 35.5595 22.1917 36.0882C8.96086 40.6915 0.5 47.9091 0.5 55.3938C0.5 63.1275 9.58122 70.8819 23.3777 75.5838C24.4968 75.9625 25.6263 76.3143 26.7662 76.6394C26.3961 78.1073 26.0685 79.5916 25.7835 81.0923C23.177 94.8376 25.2101 105.748 31.7134 109.488C38.4305 113.35 49.6986 109.382 60.6826 99.8118C61.5515 99.0546 62.4203 98.2549 63.2892 97.4129C64.3874 98.4693 65.5169 99.4946 66.6777 100.489C77.3124 109.613 87.8142 113.298 94.3071 109.548C101.019 105.673 103.201 93.9506 100.367 79.6893C100.15 78.6 99.8999 77.4883 99.6167 76.3541C100.409 76.1207 101.185 75.8795 101.944 75.6305C116.28 70.8923 125.62 63.2312 125.62 55.4016C125.614 47.8806 116.882 40.6163 103.37 35.9766ZM69.7456 14.9489C78.9806 6.93259 87.6135 3.76858 91.5494 6.03007C95.7381 8.43939 97.3672 18.1545 94.7346 30.8961C94.5608 31.726 94.3731 32.5533 94.1716 33.378C88.6603 32.1307 83.0717 31.2505 77.4427 30.7431C74.2198 26.1238 70.6868 21.7265 66.868 17.5813C67.8028 16.6788 68.7603 15.8013 69.7404 14.9489H69.7456ZM37.4426 61.7893C38.5739 63.9678 39.7564 66.1195 40.9901 68.2444C42.2465 70.4125 43.5559 72.5486 44.9182 74.6528C41.0451 74.2338 37.1962 73.6166 33.3868 72.8036C34.492 69.2454 35.8526 65.5498 37.4426 61.7893ZM37.4426 49.2551C35.8787 45.575 34.5546 41.9545 33.4676 38.4586C37.0386 37.6624 40.8442 37.0114 44.8113 36.5187C43.482 38.5831 42.2031 40.6777 40.9745 42.8026C39.7459 44.9275 38.566 47.0783 37.4348 49.2551H37.4426ZM40.2838 55.5235C41.9311 52.1053 43.7053 48.7528 45.6063 45.4661C47.5056 42.181 49.5275 38.9712 51.6718 35.8366C55.3939 35.5565 59.2099 35.4087 63.065 35.4087C66.9201 35.4087 70.7595 35.5565 74.4791 35.8392C76.6008 38.9669 78.6105 42.1655 80.508 45.435C82.4056 48.7044 84.2033 52.0413 85.901 55.4457C84.2259 58.8759 82.4325 62.2423 80.5211 65.5446C78.6252 68.8296 76.6269 72.049 74.526 75.2026C70.8117 75.4619 66.967 75.6046 63.0572 75.6046C59.1474 75.6046 55.3757 75.4827 51.7291 75.2467C49.5692 72.1017 47.5308 68.878 45.6142 65.5757C43.6975 62.2734 41.9181 58.9226 40.2759 55.5235H40.2838ZM85.1477 68.2081C86.4075 66.033 87.617 63.8294 88.776 61.5974C90.3648 65.1817 91.7673 68.8451 92.9778 72.5728C89.1236 73.4363 85.2267 74.0986 81.303 74.5568C82.6272 72.4665 83.9087 70.3503 85.1477 68.2081ZM88.7239 49.2577C87.5701 47.0706 86.3702 44.9094 85.1242 42.7741C83.9079 40.6682 82.6402 38.5882 81.3213 36.5342C85.3119 37.0374 89.1409 37.7065 92.7301 38.5234C91.5762 42.166 90.2391 45.7486 88.7239 49.2577ZM63.1171 21.3911C65.7199 24.2208 68.1775 27.1794 70.4806 30.2555C65.5543 30.0221 60.6244 30.0221 55.6911 30.2555C58.123 27.0552 60.6122 24.0857 63.1171 21.3911ZM34.2965 6.18827C38.4826 3.77118 47.7385 7.22565 57.4948 15.8541C58.1178 16.4065 58.746 16.9848 59.3715 17.5839C55.533 21.7285 51.9751 26.122 48.7212 30.7353C43.1047 31.2388 37.5271 32.1051 32.0236 33.3287C31.7056 32.0562 31.4189 30.7751 31.1634 29.4852C28.8045 17.4957 30.3658 8.45754 34.2965 6.18827ZM28.1946 71.5043C27.152 71.2087 26.1224 70.888 25.1058 70.5422C19.0065 68.4674 13.968 65.7598 10.5092 62.8111C7.41257 60.1684 5.84343 57.5308 5.84343 55.3938C5.84343 50.8527 12.6361 45.0589 23.9642 41.1298C25.3873 40.6371 26.8227 40.1867 28.2702 39.7786C29.9526 45.1582 31.9901 50.4214 34.3695 55.5339C31.9618 60.717 29.899 66.052 28.1946 71.5043ZM57.1612 95.7972C52.3052 100.03 47.4414 103.03 43.1536 104.542C39.3011 105.899 36.2332 105.938 34.3799 104.872C30.4336 102.602 28.7915 93.8391 31.0305 82.0856C31.2964 80.7024 31.6005 79.3193 31.9428 77.9361C37.5014 79.1275 43.135 79.9411 48.8046 80.3713C52.0903 85.0087 55.6776 89.427 59.5436 93.5979C58.7668 94.3578 57.9718 95.0892 57.1612 95.7972ZM63.2657 89.7752C60.7321 87.0495 58.2038 84.0333 55.738 80.7915C58.1343 80.8848 60.574 80.9315 63.0572 80.9315C65.6064 80.9315 68.1295 80.8771 70.6162 80.7655C68.3214 83.891 65.8681 86.8982 63.2657 89.7752ZM95.7225 97.1899C94.977 101.194 93.4782 103.865 91.625 104.934C87.6813 107.211 79.2491 104.252 70.1574 96.4482C69.1148 95.556 68.0722 94.599 67.0113 93.5954C70.802 89.4081 74.3053 84.972 77.4975 80.3169C83.1985 79.8363 88.8594 78.9654 94.44 77.7105C94.6955 78.7375 94.9214 79.7437 95.1178 80.7292C96.3715 87.0313 96.5514 92.7317 95.7225 97.1899ZM100.258 70.5707C99.575 70.7963 98.8712 71.0142 98.157 71.2268C96.4071 65.8219 94.29 60.5416 91.8205 55.4223C94.1974 50.3714 96.2316 45.1676 97.9094 39.8461C99.1892 40.2169 100.433 40.606 101.629 41.0183C113.207 44.9915 120.271 50.8734 120.271 55.3938C120.271 60.2176 112.642 66.4782 100.258 70.5707Z" fill="#00A9A9"/>
<path d="M63.0572 66.5353C65.2755 66.5425 67.4461 65.8946 69.2941 64.6736C71.142 63.4526 72.5843 61.7134 73.4382 59.6763C74.2921 57.6392 74.5193 55.3958 74.091 53.2302C73.6626 51.0646 72.598 49.0741 71.032 47.5109C69.466 45.9476 67.4689 44.8819 65.2938 44.4486C63.1186 44.0154 60.8632 44.2341 58.813 45.0771C56.7629 45.9201 55.0102 47.3494 53.777 49.1841C52.5438 51.0188 51.8856 53.1763 51.8856 55.3835C51.8825 56.8458 52.1691 58.2943 52.729 59.6463C53.2888 60.9984 54.111 62.2273 55.1486 63.263C56.1861 64.2987 57.4186 65.1208 58.7756 65.6823C60.1326 66.2437 61.5875 66.5336 63.0572 66.5353Z" fill="#00A9A9"/>
</svg>
