<svg width="1263" height="378" viewBox="0 0 1263 378" fill="none" xmlns="http://www.w3.org/2000/svg">
<path d="M214.383 2.00012C270.883 6.00012 315.383 74.0002 408.383 80.5001C501.383 87.0001 665.382 66.5 732.882 56.5C800.383 46.5001 1171.88 -30.4999 1212.88 14.5001C1253.88 59.5001 1288.88 176.5 1235.88 205.5C1182.88 234.5 1179.38 283 1118.38 292.5C1057.38 302 1012.88 297.5 949.382 279C885.882 260.5 846.882 346.5 732.882 365C618.882 383.5 340.883 278 247.883 321.5C154.883 365 50.3826 397 38.8826 365C27.3826 333 26.3826 285 5.88259 264C-14.6174 243 25.8826 185 15.3826 101.5C4.88259 18.0001 157.883 -1.99988 214.383 2.00012Z" fill="url(#paint0_linear_38_131)"/>
<defs>
<linearGradient id="paint0_linear_38_131" x1="0" y1="189.751" x2="1262.73" y2="189.751" gradientUnits="userSpaceOnUse">
<stop stop-color="#FF192C"/>
<stop offset="1" stop-color="#040377"/>
</linearGradient>
</defs>
</svg>
