<svg width="126" height="111" viewBox="0 0 171 112" fill="none" xmlns="http://www.w3.org/2000/svg">
<path d="M85.5 0C62.8347 0 48.6652 12.446 43 37.3333C51.5 24.8873 61.4152 20.2207 72.75 23.3333C79.2185 25.1067 83.8382 30.2587 88.9552 35.9613C97.2852 45.248 106.933 56 128 56C150.665 56 164.835 43.554 170.5 18.6667C162 31.1127 152.085 35.7793 140.75 32.6667C134.286 30.8933 129.662 25.7413 124.545 20.0387C116.215 10.752 106.567 0 85.5 0ZM43 56C20.3347 56 6.16525 68.446 0.5 93.3333C9 80.8873 18.9152 76.2207 30.25 79.3333C36.7142 81.1067 41.3382 86.2587 46.4552 91.9613C54.7852 101.248 64.4328 112 85.5 112C108.165 112 122.335 99.554 128 74.6667C119.5 87.1127 109.585 91.7793 98.25 88.6667C91.7858 86.8933 87.1618 81.7413 82.0448 76.0387C73.7148 66.752 64.0672 56 43 56Z" fill="#16BDCA"/>
</svg>
