<svg width="219" height="236" viewBox="0 0 219 236" fill="none" xmlns="http://www.w3.org/2000/svg">
<path d="M26.7824 213.558V14.1512H0V0H66.3487V14.1512H42.444V213.558H26.7824Z" fill="white"/>
<path d="M52.5177 235.854V235.67V223.14V24.8752H79.1308L89.6111 106.776L104.515 213.558H109.814L107.157 46.9865H122.465V235.67H92.9176L83.1345 167.98L69.7102 61.1378H64.0579L66.6485 165.031L67.5906 235.854H52.5177Z" fill="white"/>
<path d="M134.241 213.558V24.8752H162.856C173.533 24.8752 181.265 27.2338 186.054 31.9508C190.843 36.6679 193.473 44.4904 193.944 55.4183C194.179 62.4153 194.336 69.0585 194.415 75.348C194.493 81.5588 194.493 87.6124 194.415 93.5087C194.336 99.3264 194.179 105.144 193.944 110.962C193.708 118.588 192.374 124.681 189.94 129.241C187.506 133.722 183.738 136.906 178.635 138.793L197.594 213.558H180.873L163.563 141.505H149.785V213.558H134.241ZM149.785 127.354H162.738C168.077 127.354 171.923 126.096 174.278 123.58C176.712 121.064 178.047 117.094 178.282 111.669C178.518 105.459 178.675 99.1692 178.753 92.8011C178.832 86.3545 178.832 79.9471 178.753 73.579C178.675 67.211 178.518 60.9216 178.282 54.7107C178.047 49.2861 176.751 45.3159 174.396 42.8001C172.041 40.2843 168.194 39.0265 162.856 39.0265H149.785V127.354Z" fill="white"/>
<path d="M107.157 46.9865H122.465V15.6622H173.875L196.875 16.5835L203.315 15.6622L171.115 0H107.157V46.9865Z" fill="white"/>
<path d="M171.115 0L203.315 15.6622V48.8291V213.558H218.656V46.6794C218.656 20.8991 197.757 0 171.977 0H171.115Z" fill="white"/>
<path d="M203.315 48.8291V15.6622L196.875 16.5835L173.875 15.6622C183.075 16.0307 203.315 23.0326 203.315 48.8291Z" fill="white"/>
<path d="M66.3487 0V14.1512H96.5974V0H66.3487Z" fill="white"/>
<path d="M218.656 213.558H203.315V221.518H134.241V235.67H218.656V213.558Z" fill="white"/>
<path d="M52.5177 223.14H14.7196V27.6391H0V235.67H52.5177V223.14Z" fill="white"/>
</svg>
